<svg height="696" width="1123" fill="none" viewBox="0 0 1123 696" xmlns="http://www.w3.org/2000/svg">
<path d="M648.349 0.372009C718.151 0.372009 787.953 0.372009 857.755 0.372009C857.788 1.39001 857.846 2.40699 857.851 3.42499C857.931 19.743 858.004 36.061 858.079 52.379C847.261 54.492 836.415 56.468 825.631 58.744C784.871 67.348 744.366 77.02 704.055 87.541C646.644 102.526 589.668 119.027 532.924 136.336C497.602 147.111 462.373 158.194 427.14 169.257C387.287 181.771 347.497 194.482 307.639 206.978C289.009 212.819 270.284 218.356 251.602 224.03C251.589 223.69 251.566 223.35 251.566 223.01C251.542 149.587 251.519 76.164 251.504 2.742C251.504 2.069 251.611 1.39602 251.667 0.723022C252.771 0.756022 253.875 0.817017 254.978 0.817017C379.145 0.782017 503.312 0.742979 627.48 0.703979C633.522 0.701979 639.565 0.712993 645.607 0.692993C646.526 0.689993 647.489 0.922009 648.349 0.372009Z" fill="#004F91"/>
<path d="M0.723663 196.993C3.61766 192.023 6.42068 191.016 12.9367 192.71C22.4747 195.189 31.1517 199.733 39.8607 204.151C60.5497 214.647 81.0347 225.565 102.803 233.772C118.129 239.55 133.799 243.968 150.171 245.383C162.644 246.461 174.901 245.063 187.053 241.95C208.365 236.491 229.556 230.617 250.664 224.429C250.988 224.334 251.289 224.165 251.602 224.03C270.284 218.355 289.009 212.818 307.639 206.978C347.497 194.482 387.288 181.771 427.141 169.257C462.374 158.194 497.603 147.111 532.925 136.336C589.668 119.027 646.643 102.526 704.055 87.541C744.366 77.02 784.871 67.348 825.631 58.744C836.414 56.468 847.262 54.492 858.079 52.379C859.333 52.158 860.589 51.942 861.842 51.713C875.623 49.2 889.394 46.623 903.284 44.757C915.497 43.117 927.753 41.95 940.05 41.136C959.39 39.857 978.729 39.109 998.127 39.558C1014.97 39.948 1031.74 40.912 1048.42 43.288C1063 45.365 1077.36 48.369 1091.03 54.043C1100.54 57.994 1109.34 63.025 1115.91 71.279C1118.97 75.123 1120.76 79.556 1122.32 84.128C1122.32 86.341 1122.32 88.554 1122.32 90.767C1119.01 102.586 1109.92 107.991 1099.21 111.633C1031.34 134.717 963.252 157.149 894.695 178.14C882.515 181.869 870.34 185.613 858.163 189.351C833.706 196.416 809.28 203.589 784.786 210.522C738.17 223.717 691.301 235.932 643.971 246.327C640.81 247.021 637.618 247.568 634.44 248.184C634.766 247.507 635.2 247.264 635.665 247.127C651.703 242.401 667.752 237.713 683.783 232.963C730.984 218.977 778.064 204.594 825.017 189.798C836.106 186.304 847.154 182.681 858.222 179.118C859.283 178.833 860.358 178.593 861.403 178.258C899.322 166.079 937.145 153.61 974.676 140.276C1006.38 129.013 1038 117.538 1068.6 103.47C1078.02 99.138 1087.37 94.624 1095.69 88.303C1098.81 85.937 1101.21 83.009 1102.68 79.369C1104.4 75.1 1103.41 71.339 1099.88 68.395C1097.9 66.739 1095.66 65.559 1093.26 64.644C1083.36 60.865 1072.95 59.927 1062.53 59.133C1051.32 58.28 1040.09 58.438 1028.86 58.519C1018.15 58.597 1007.45 59.107 996.765 59.797C982.439 60.722 968.127 61.925 953.829 63.222C941.732 64.319 929.65 65.604 917.586 67.017C903.33 68.687 889.096 70.545 874.863 72.401C869.228 73.136 863.62 74.084 857.999 74.935C857.32 74.962 856.63 74.922 855.963 75.027C847.756 76.326 839.551 77.644 831.347 78.962C807.56 82.783 783.935 87.465 760.384 92.512C730.19 98.983 700.154 106.131 670.22 113.716C634.6 122.742 599.14 132.357 563.786 142.363C527.93 152.511 492.16 162.96 456.519 173.841C419.253 185.218 382.004 196.65 344.754 208.08C326.248 213.759 307.756 219.484 289.259 225.193C276.688 229.073 264.12 232.962 251.55 236.847C238.681 240.624 225.826 244.45 212.939 248.164C202.412 251.197 191.902 254.313 181.285 257C167.762 260.424 154.14 259.617 140.577 256.984C116.894 252.386 95.1097 242.706 73.7297 231.947C58.7707 224.419 44.3597 215.85 29.2897 208.535C26.2287 207.049 23.1187 205.631 19.7917 204.883C17.9347 204.466 15.7897 203.845 14.2967 205.638C12.8787 207.34 13.3577 209.353 14.1437 211.207C16.8177 217.513 21.3557 222.51 25.8997 227.445C40.8337 243.666 57.4677 258.174 72.9017 273.892C81.4237 282.571 90.0107 291.213 96.5097 301.609C102.507 311.203 101.959 316.712 94.3687 325.209C88.6357 331.627 81.4237 335.912 73.6957 339.391C59.4177 345.817 44.2747 349.289 28.9917 352.247C28.0877 352.422 27.1777 352.569 26.2077 352.565C30.7127 349.864 35.5137 347.794 40.2797 345.661C47.6457 342.365 55.1877 339.425 61.8427 334.728C69.6087 329.246 74.3037 321.588 77.1577 312.729C78.2267 309.412 77.1447 306.155 75.6967 303.106C71.8977 295.11 66.4237 288.251 60.6247 281.685C48.9187 268.43 36.9317 255.423 25.2457 242.15C17.2637 233.084 9.59068 223.751 4.09668 212.858C2.68168 210.053 1.96966 207.001 0.722656 204.145C0.723656 201.76 0.723663 199.377 0.723663 196.993Z" fill="#A1A5A8"/>
<path d="M0.723663 656.628C1.63066 655.691 1.33467 654.407 1.62967 653.3C3.80367 645.143 8.96366 640.115 17.1627 638.198C22.6487 636.915 28.1157 637.02 33.5127 638.667C41.6377 641.147 47.0037 647.677 47.6107 656.139C47.8707 659.764 48.0217 663.435 47.3217 667.065C45.4107 676.972 39.1237 682.916 29.0987 684.1C25.2157 684.558 21.3247 684.502 17.4557 683.709C8.78866 681.933 2.87366 675.903 1.27966 667.15C1.16566 666.525 1.44967 665.758 0.72467 665.31C0.72367 662.416 0.723663 659.522 0.723663 656.628ZM24.3627 647.974C20.8647 647.934 17.3687 650.099 16.1867 653.411C14.4517 658.271 14.3517 663.245 16.0947 668.138C17.3087 671.546 20.7777 673.958 23.9947 673.893C28.3707 673.805 31.7457 671.57 32.8597 667.624C34.1417 663.084 34.1707 658.453 32.6437 653.948C31.3237 650.057 28.3417 648.019 24.3627 647.974Z" fill="#004F91"/>
<path d="M975.239 655.456C971.876 649.284 962.299 646.049 955.829 652.412C955.552 652.667 955.297 653.093 954.786 652.838C954.722 652.689 954.594 652.519 954.616 652.37C954.871 649.263 952.637 650.029 950.891 649.901C948.465 649.731 949.188 651.497 949.167 652.668C949.061 665.991 948.997 679.335 948.891 692.68C948.891 693.595 948.742 694.51 948.678 695.447H955.318C954.722 690.573 955.467 685.742 955.254 680.613C963.107 686.955 972.153 682.762 975.154 677.335C979.155 670.077 979.155 662.692 975.239 655.456ZM963.916 680.037C957.914 680.037 953.062 673.971 953.062 666.501C953.062 659.031 957.915 652.965 963.916 652.965C969.918 652.965 974.77 659.031 974.77 666.501C974.77 673.971 969.918 680.037 963.916 680.037Z" fill="#004F91"/>
<path d="M1122.32 674.502C1121.31 676.041 1121 677.952 1119.73 679.349C1115.32 684.204 1109.69 684.078 1103.92 683.122C1099.1 682.324 1096.46 679.197 1095.07 674.675C1094.62 673.238 1094.99 672.854 1096.28 672.733C1097.12 672.654 1097.99 672.615 1098.79 672.373C1100 672.011 1100.48 672.444 1100.73 673.591C1101.92 679.183 1109.94 680.232 1113.84 677.727C1115.39 676.731 1116.42 675.211 1116.21 673.224C1116.01 671.398 1114.54 670.774 1113.05 670.308C1109.01 669.044 1104.91 667.961 1100.92 666.549C1097.45 665.319 1095.71 662.727 1095.77 658.914C1095.83 654.422 1098.06 651.039 1102.45 649.882C1106.97 648.688 1111.5 648.762 1115.86 650.882C1118.44 652.136 1119.85 654.177 1120.6 656.838C1120.94 658.031 1120.64 658.602 1119.35 658.644C1118.59 658.668 1117.8 658.758 1117.09 658.995C1115.72 659.446 1115.24 658.859 1114.71 657.647C1112.82 653.371 1105.43 652.246 1102.25 655.667C1100.18 657.899 1101.09 660.542 1104.4 661.597C1107.39 662.549 1110.4 663.45 1113.45 664.183C1117.61 665.186 1120.98 667.042 1122.32 671.436C1122.32 672.46 1122.32 673.481 1122.32 674.502Z" fill="#004F91"/>
<path d="M251.667 0.723022C251.59 0.616022 251.535 0.499009 251.5 0.372009C383.783 0.372009 516.066 0.372009 648.349 0.372009C647.489 0.922009 646.525 0.689993 645.607 0.692993C639.565 0.712993 633.522 0.701979 627.48 0.703979C503.313 0.742979 379.147 0.782017 254.979 0.817017C253.875 0.817017 252.771 0.756022 251.667 0.723022Z" fill="#A1A5A8"/>
<path d="M858.222 179.116C847.155 182.679 836.106 186.302 825.018 189.796C778.065 204.592 730.985 218.975 683.784 232.961C667.753 237.711 651.704 242.399 635.666 247.125C635.201 247.262 634.767 247.505 634.441 248.182C637.619 247.567 640.812 247.02 643.972 246.325C691.302 235.931 738.171 223.716 784.787 210.52C809.281 203.587 833.707 196.413 858.164 189.349C858.176 221.948 858.186 254.547 858.2 287.147C858.211 311.574 858.228 336.002 858.242 360.429C857.307 360.405 856.366 360.442 855.438 360.35C842.35 359.05 829.274 357.612 816.173 356.457C804.59 355.435 792.988 354.595 781.38 353.909C767.477 353.086 753.564 352.418 739.648 351.859C727.762 351.381 715.866 350.902 703.973 350.861C675.388 350.762 646.803 350.413 618.216 351.094C602.581 351.467 586.941 351.637 571.306 352.144C561.201 352.472 551.097 352.829 540.993 353.135C523.667 353.66 506.361 354.569 489.049 355.358C482.177 355.671 475.304 356.002 468.441 356.466C457.432 357.21 446.43 358.068 435.426 358.887C428.145 359.429 420.856 359.885 413.588 360.562C402.183 361.623 390.788 362.801 379.397 364C369.779 365.012 360.154 365.985 350.565 367.226C337.53 368.913 324.524 370.829 311.508 372.664C297.233 374.677 283.028 377.125 268.818 379.55C263.141 380.519 257.54 381.954 251.774 382.391C251.749 373.3 251.712 364.21 251.7 355.119C251.647 315.694 251.6 276.27 251.552 236.845C264.122 232.96 276.69 229.071 289.261 225.191C307.758 219.482 326.25 213.756 344.756 208.078C382.006 196.648 419.255 185.216 456.521 173.839C492.162 162.958 527.932 152.51 563.788 142.361C599.142 132.355 634.602 122.74 670.222 113.714C700.157 106.129 730.193 98.981 760.386 92.51C783.937 87.463 807.562 82.781 831.349 78.96C839.553 77.642 847.758 76.324 855.965 75.025C856.632 74.919 857.322 74.96 858.001 74.933C858.024 76.121 858.065 77.309 858.067 78.496C858.121 112.036 858.171 145.576 858.222 179.116ZM751.008 129.075C746.455 129.672 742.15 131.241 737.765 132.49C737.252 132.636 736.628 132.787 736.431 133.496C735.956 135.216 734.478 136.293 733.623 137.773C733.58 137.552 733.538 137.331 733.495 137.11C733.411 137.181 733.328 137.252 733.244 137.324C733.382 137.462 733.521 137.601 733.659 137.739C733.518 139.751 732.722 142.006 733.36 143.73C735.201 148.705 734.573 154.775 739.657 158.43C740.37 158.943 740.47 160.335 741.82 160.233L741.791 160.199C742.558 161.027 743.838 161.192 744.559 160.954C750.699 158.92 757.998 159.833 762.667 153.898C763.142 153.294 764.426 153.31 764.276 152.05C764.931 151.539 764.986 151.029 764.274 150.52C765.12 147.601 764.291 144.877 763.37 142.138C762.642 139.974 762.056 137.762 761.403 135.573C760.414 132.26 756.896 129.639 753.348 129.493C752.555 129.46 751.633 129.899 750.983 129.044C752.356 129.044 753.729 129.044 755.102 129.044C753.726 128.803 752.31 128.102 751.008 129.075ZM802.105 138.24C802.124 138.636 802.143 139.033 802.162 139.429C802.493 138.988 802.721 138.552 802.068 138.271C802.2 136.855 802.703 135.352 802.395 134.04C801.41 129.858 800.182 125.728 798.89 121.628C798.693 121.004 798.783 119.582 797.119 119.903C796.655 119.992 795.37 118.645 795.427 118.049C795.57 116.569 794.097 116.417 793.846 116.51C791.616 117.339 789.351 115.853 787.145 116.769C783.283 118.373 779.107 118.813 775.247 120.884C772.913 122.137 771.617 123.215 770.938 125.49C770.154 127.025 770.143 128.561 770.938 130.096C772.69 135.383 772.621 141.113 776.861 145.795C779.557 148.772 781.974 148.623 784.908 148.014C788.383 147.292 791.77 146.157 795.209 145.252C798.514 144.382 801.461 143.2 801.599 139.062C801.608 138.782 801.929 138.513 802.105 138.24ZM707.597 171.927C708.048 171.827 708.715 171.716 709.362 171.531C713.597 170.319 717.847 169.153 722.055 167.851C726.907 166.351 729.201 162.185 727.867 157.303C726.772 153.298 725.581 149.317 724.341 145.355C722.902 140.758 718.928 138.27 714.278 139.405C709.592 140.549 704.967 141.992 700.403 143.562C697.173 144.674 694.785 148.867 695.594 152.001C696.863 156.919 698.297 161.807 699.938 166.613C701.092 169.993 703.835 171.608 707.597 171.927ZM631.725 248.361C632.447 248.597 632.842 248.635 633.21 248.354C632.814 247.848 632.379 248.083 631.725 248.361Z" fill="#004F91"/>
<path d="M858.289 373.791C858.313 396.941 858.318 420.092 858.397 443.242C858.403 445.001 857.958 445.801 856.145 445.513C855.979 445.487 855.805 445.509 855.635 445.509C826.525 445.553 797.415 445.627 768.305 445.635C641.132 445.67 513.959 445.68 386.786 445.712C342.779 445.723 298.772 445.754 254.766 445.86C252.384 445.866 251.538 445.414 251.631 442.845C251.849 436.809 251.72 430.762 251.731 424.719C252.689 424.391 253.635 424.018 254.608 423.74C287.654 414.305 320.965 405.928 354.59 398.818C375.663 394.362 396.832 390.391 418.109 387.046C437.46 384.004 456.869 381.378 476.34 379.169C492.95 377.285 509.586 375.704 526.236 374.285C538.328 373.254 550.443 372.446 562.561 371.754C576.802 370.941 591.054 370.296 605.306 369.703C616.085 369.254 626.871 368.93 637.657 368.681C649.726 368.403 661.799 368.117 673.87 368.107C708.313 368.079 742.759 367.615 777.194 368.972C788.819 369.43 800.441 369.915 812.061 370.494C827.497 371.261 842.89 372.544 858.289 373.791Z" fill="#004F91"/>
<path d="M858.289 373.791C842.89 372.544 827.496 371.261 812.06 370.493C800.439 369.915 788.818 369.43 777.193 368.971C742.758 367.614 708.312 368.078 673.869 368.106C661.798 368.116 649.725 368.402 637.656 368.68C626.87 368.929 616.084 369.253 605.305 369.702C591.053 370.295 576.801 370.94 562.56 371.753C550.443 372.445 538.328 373.253 526.235 374.284C509.584 375.704 492.949 377.284 476.339 379.168C456.868 381.377 437.458 384.002 418.108 387.045C396.832 390.39 375.663 394.36 354.589 398.817C320.964 405.927 287.653 414.304 254.607 423.739C253.634 424.017 252.688 424.39 251.73 424.718C244.098 426.419 236.68 428.883 229.204 431.123C197.787 440.537 166.598 450.662 135.621 461.434C133.829 462.057 132.371 462.116 130.608 461.066C110.881 449.321 91.0947 437.675 71.3267 426C70.8927 425.744 70.4757 425.456 69.6137 424.902C73.7707 423.784 77.5367 422.746 81.3147 421.759C121.987 411.131 162.805 401.104 203.913 392.3C218.695 389.134 233.557 386.343 248.377 383.357C249.526 383.125 250.757 383.117 251.772 382.39C257.538 381.954 263.139 380.519 268.817 379.55C283.026 377.125 297.231 374.676 311.507 372.664C324.523 370.829 337.528 368.913 350.564 367.226C360.153 365.985 369.78 365.012 379.397 364C390.789 362.801 402.183 361.624 413.588 360.562C420.856 359.885 428.145 359.429 435.426 358.887C446.43 358.068 457.431 357.211 468.441 356.466C475.304 356.002 482.177 355.671 489.049 355.358C506.362 354.57 523.668 353.66 540.993 353.135C551.097 352.829 561.201 352.472 571.306 352.144C586.94 351.637 602.579 351.466 618.215 351.094C646.802 350.412 675.388 350.762 703.973 350.861C715.866 350.902 727.761 351.381 739.647 351.859C753.563 352.419 767.477 353.087 781.379 353.909C792.987 354.596 804.589 355.436 816.172 356.457C829.273 357.613 842.349 359.051 855.437 360.35C856.365 360.442 857.306 360.406 858.241 360.429C863.277 361.089 868.311 361.757 873.348 362.406C887.158 364.186 900.989 365.819 914.775 367.77C929.985 369.922 945.159 372.331 960.339 374.685C979.881 377.715 999.353 381.159 1018.81 384.663C1023.16 385.445 1027.5 386.228 1031.85 386.981C1032.69 387.127 1033.55 387.187 1034.19 387.849C1039.46 393.374 1044.72 398.906 1049.94 404.386C986.78 391.22 922.99 379.617 858.289 373.791Z" fill="#A1A5A8"/>
<path d="M99.1977 543.607C101.498 545.188 103.282 546.305 104.94 547.585C106.518 548.803 107.08 550.504 107.084 552.527C107.102 563.076 107.257 573.626 107.225 584.174C107.219 586.212 107.619 586.926 109.837 586.91C131.792 586.758 153.747 586.698 175.702 586.702C177.88 586.702 178.549 586.184 178.527 583.875C178.437 574.091 178.799 564.301 178.57 554.522C178.462 549.911 180.024 546.835 184.14 544.95C184.826 544.636 185.473 544.234 186.42 543.72C186.42 554.159 186.42 564.376 186.42 575.568C190.372 570.714 195.185 571.574 199.787 571.539C206.339 571.489 212.891 571.426 219.442 571.414C225.019 571.404 227.207 573.351 228.15 578.893C228.51 581.008 228.542 583.13 228.493 585.252C228.465 586.477 228.829 586.773 230.081 586.768C246.166 586.712 262.25 586.73 278.335 586.724C279.082 586.724 279.862 586.872 280.428 586.125C283.409 582.193 288.309 580.077 290.511 574.952C293.222 579.817 298.34 581.737 301.134 585.993C301.634 586.755 302.495 586.556 303.245 586.558C320.091 586.594 336.938 586.585 353.784 586.704C356.206 586.721 356.893 586.04 356.843 583.568C356.657 574.295 357.056 565 356.596 555.745C356.285 549.496 359.121 546.057 364.817 543.753C364.817 544.754 364.816 545.631 364.817 546.508C364.84 559.104 364.902 571.7 364.842 584.295C364.833 586.13 365.169 586.891 367.173 586.703C369.279 586.505 371.432 586.514 373.54 586.699C375.698 586.889 376.435 586.341 376.38 583.983C376.16 574.542 376.552 565.074 375.988 555.659C375.607 549.3 378.54 546.022 383.936 543.933C384.514 544.465 384.207 545.181 384.208 545.793C384.23 560.858 384.229 575.923 384.222 590.988C384.22 594.801 383.052 595.947 379.151 595.95C368.608 595.959 358.066 595.926 347.523 595.96C334.504 596.002 321.486 596.096 308.468 596.166C307.872 596.169 307.252 596.274 306.685 596.147C303.602 595.458 301.632 596.454 299.438 598.991C293.715 605.606 285.045 604.547 280.494 597.058C279.727 595.795 278.75 595.95 277.68 595.956C265.172 596.022 252.665 596.14 240.157 596.157C216.248 596.19 192.339 596.15 168.43 596.172C146.566 596.192 124.702 596.256 102.838 596.295C99.1957 596.301 99.1947 596.287 99.1947 592.786C99.1947 577.551 99.1947 562.316 99.1947 547.08C99.1977 546.161 99.1977 545.24 99.1977 543.607ZM203.404 586.659C208.414 586.659 213.424 586.622 218.433 586.684C219.785 586.701 220.374 586.429 220.388 584.891C220.419 581.548 218.975 580.05 215.078 580.041C207.098 580.022 199.117 580.078 191.136 580.127C186.552 580.155 186.646 580.177 186.588 584.787C186.567 586.47 187.164 586.715 188.629 586.691C193.553 586.609 198.479 586.659 203.404 586.659ZM290.551 587.491C288.097 587.511 286.733 588.856 286.748 591.238C286.763 593.525 288.364 595.221 290.501 595.215C292.91 595.208 294.443 593.623 294.398 591.185C294.354 588.776 292.995 587.471 290.551 587.491Z" fill="#004F91"/>
<path d="M997.588 552.797C997.52 554.964 996.564 555.886 995.097 556.717C989.554 559.858 984.109 563.17 978.605 566.379C977.659 566.93 976.784 567.591 977.018 568.701C977.3 570.039 978.462 570.526 979.768 570.502C983.595 570.43 987.422 570.373 991.247 570.229C1002.65 569.801 1002.82 573.349 1003.56 580.624C1003.74 582.368 1002.97 584.83 1004.22 585.676C1005.53 586.557 1007.81 586.03 1009.67 586.042C1017.67 586.093 1025.67 586.084 1033.67 586.176C1035.14 586.193 1036.23 585.78 1037.25 584.708C1040.34 581.45 1044.27 579.026 1046.77 574.745C1049.62 579.183 1054.28 581.386 1057.14 585.406C1057.68 586.166 1058.39 586.152 1059.16 586.151C1069.97 586.146 1080.77 586.102 1091.58 586.193C1093.37 586.208 1093.44 585.415 1093.42 584.056C1093.32 574.102 1093.47 564.141 1093.12 554.197C1092.95 549.484 1094.49 546.32 1098.81 544.498C1099.58 544.175 1100.29 543.733 1101.38 543.164C1101.38 544.166 1101.38 544.88 1101.38 545.594C1101.36 560.573 1101.34 575.551 1101.31 590.53C1101.31 594.056 1099.93 595.436 1096.37 595.439C1084.12 595.45 1071.88 595.463 1059.64 595.417C1058.24 595.412 1057.33 595.7 1056.59 597.033C1052.37 604.613 1039.78 604.38 1036.56 596.871C1036.17 595.955 1035.57 595.629 1034.59 595.636C1033.15 595.647 1031.71 595.454 1030.27 595.453C1006.53 595.44 982.794 595.418 959.056 595.449C922.047 595.498 885.037 595.594 848.028 595.653C833.308 595.677 818.588 595.663 803.868 595.653C799.629 595.65 798.01 593.986 798.062 589.768C798.153 582.491 799.24 580.757 806.171 577.165C806.171 579.641 806.291 581.982 806.13 584.305C806.016 585.952 806.61 586.265 808.124 586.25C815.443 586.176 822.764 586.187 830.083 586.245C831.451 586.256 832.164 585.982 831.907 584.461C830.852 578.214 834.613 574.974 839.811 572.201C839.811 576.273 839.906 580.138 839.769 583.995C839.706 585.777 840.203 586.266 842.011 586.26C861.331 586.192 880.651 586.193 899.97 586.258C901.739 586.264 902.479 585.84 902.191 584.028C901.228 577.972 904.946 574.91 909.95 572.186C909.95 576.163 909.987 579.859 909.934 583.554C909.908 585.343 910.259 586.215 912.46 586.208C939.265 586.118 966.071 586.165 992.876 586.094C993.948 586.091 995.753 587.173 996.132 585.049C996.673 582.015 995.529 579.518 993.372 578.876C992.499 578.616 991.531 578.604 990.605 578.602C980.987 578.584 971.369 578.634 961.751 578.541C960.465 578.529 958.365 579.646 958.043 577.188C957.758 575.014 958.156 572.895 960.398 571.735C964.62 569.551 968.861 567.405 973.098 565.249C981.185 561.134 989.272 557.025 997.588 552.797ZM1050.37 590.751C1050.42 588.314 1049.12 587.004 1046.64 586.981C1044.25 586.959 1042.69 588.378 1042.65 590.63C1042.61 592.776 1044.3 594.475 1046.49 594.51C1048.76 594.545 1050.33 593.027 1050.37 590.751Z" fill="#004F91"/>
<path d="M595.174 543.863C595.174 553.999 595.174 564.088 595.174 574.143C595.472 574.222 595.694 574.348 595.765 574.29C598.818 571.783 602.304 571.11 606.221 571.172C613.444 571.286 620.675 571.425 627.904 571.058C633.526 570.772 637.081 574.248 637.112 579.845C637.132 583.418 637.12 586.992 637.115 590.566C637.11 594.432 635.776 595.785 631.943 595.786C610.585 595.79 589.227 595.766 567.868 595.793C542.176 595.825 516.485 595.91 490.793 595.947C482.966 595.958 475.138 595.825 467.312 595.907C465.618 595.925 465.107 595.535 465.154 593.841C465.264 589.845 465.195 585.844 465.187 581.845C465.182 579.37 464.213 578.602 461.75 579.094C458.647 579.714 456.176 582.549 456.138 585.793C456.09 589.874 456.162 593.957 456.264 598.037C456.315 600.073 455.855 601.98 454.714 603.589C447.49 613.773 434.491 613.421 427.684 606.286C421.456 599.758 425.881 587.624 432.764 586.163C432.575 589.476 432.053 592.724 432.687 595.997C433.505 600.218 435.744 602.224 440.247 602.39C444.325 602.541 447.339 600.241 448.247 596.352C449.075 592.806 448.42 589.23 448.531 585.67C448.613 583.018 448.722 580.42 450.138 578.042C452.411 574.225 455.599 571.924 460.096 571.347C464.718 570.753 469.307 569.91 473.099 566.737C473.099 572.612 473.2 578.277 473.046 583.934C472.99 585.989 473.69 586.603 475.611 586.579C489.134 586.415 502.659 586.778 516.184 586.382C520.597 586.253 525.023 586.438 529.44 586.592C530.971 586.645 531.53 586.298 531.392 584.634C531.21 582.442 532.244 580.719 534.158 579.545C535.805 578.535 537.417 577.467 539.496 576.136C539.496 579.172 539.605 581.76 539.459 584.332C539.357 586.123 539.932 586.633 541.725 586.602C550.653 586.445 559.583 586.414 568.512 586.352C574.119 586.313 579.722 586.656 585.334 586.399C586.977 586.324 587.542 585.942 587.508 584.231C587.313 574.369 587.694 564.502 587.275 554.638C587.005 548.374 588.816 545.956 595.174 543.863ZM612.033 586.347C617.052 586.347 622.07 586.365 627.089 586.326C627.75 586.321 628.62 586.739 628.988 585.617C629.738 583.332 628.775 581.126 626.498 580.216C625.219 579.705 623.877 579.584 622.499 579.601C614.849 579.694 607.198 579.768 599.547 579.82C595.175 579.85 595.277 579.828 595.186 584.177C595.147 586.024 595.759 586.427 597.488 586.387C602.334 586.274 607.184 586.348 612.033 586.347Z" fill="#004F91"/>
<path d="M672.288 567.134C672.288 573.142 672.327 578.837 672.261 584.531C672.244 585.984 672.484 586.643 674.187 586.594C687.107 586.223 700.03 586.183 712.955 586.333C717.121 586.381 721.29 586.172 725.454 586.26C727.156 586.296 727.563 585.765 727.546 584.125C727.442 574.004 727.439 563.881 727.416 553.759C727.404 548.399 729.486 545.755 735.274 543.748C735.707 544.449 735.475 545.226 735.476 545.957C735.492 560.59 735.49 575.223 735.486 589.855C735.485 594.425 734.291 595.637 729.785 595.654C711.412 595.723 693.039 595.814 674.666 595.813C672.851 595.813 671.989 596.119 672.249 598.137C672.399 599.298 672.245 600.517 672.101 601.694C671.096 609.89 665.858 613.383 657.722 611.345C653.665 610.329 650.95 607.959 649.93 603.818C649.603 602.49 649.854 601.786 651.493 601.849C655.061 601.985 658.639 601.878 662.207 602.01C663.714 602.066 664.275 601.707 664.29 600.081C664.33 595.853 664.414 595.862 660.235 595.851C657.258 595.843 654.281 595.779 651.304 595.8C650.224 595.808 649.53 595.664 649.548 594.317C649.608 589.986 649.504 585.658 650.281 581.359C651.174 576.413 654.091 573.332 658.761 571.816C663.188 570.382 667.732 569.301 672.288 567.134ZM664.179 582.359C663.676 581.487 665.079 579.558 663.603 579.049C661.955 578.48 660.376 579.736 659.26 581.111C658.736 581.757 658.268 582.494 657.963 583.264C656.945 585.837 657.314 586.333 660.102 586.347C660.951 586.351 661.806 586.281 662.647 586.361C663.914 586.481 664.303 585.909 664.19 584.736C664.126 584.063 664.179 583.379 664.179 582.359Z" fill="#004F91"/>
<path d="M269.179 659.796C269.179 666.939 269.126 674.083 269.216 681.225C269.238 682.997 268.741 683.625 266.928 683.535C264.127 683.396 261.295 683.301 258.511 683.56C256.211 683.774 255.916 682.888 255.951 680.893C256.069 674.173 255.983 667.45 256 660.728C256.016 653.922 256.132 647.115 256.047 640.311C256.024 638.475 256.589 638.042 258.331 638.098C261.214 638.19 264.111 638.074 266.993 637.899C268.558 637.804 269.44 638.429 270.29 639.692C275.255 647.072 280.306 654.393 285.404 661.846C286.183 661.054 285.902 660.259 285.9 659.569C285.883 653.02 285.879 646.469 285.751 639.922C285.719 638.265 286.17 637.682 287.878 637.765C291.189 637.926 294.51 637.922 297.826 637.912C299.004 637.908 299.471 638.266 299.464 639.518C299.386 653.64 299.343 667.763 299.329 681.885C299.328 683.259 298.71 683.653 297.467 683.64C294.149 683.607 290.828 683.57 287.512 683.659C286.218 683.694 285.761 682.876 285.184 682.034C280.622 675.373 276.051 668.717 271.479 662.062C270.917 661.244 270.334 660.439 269.761 659.629C269.568 659.683 269.373 659.74 269.179 659.796Z" fill="#004F91"/>
<path d="M599.004 660.463C599.004 653.66 599.06 646.856 598.966 640.055C598.942 638.295 599.409 637.73 601.228 637.755C607.519 637.844 613.813 637.762 620.105 637.727C633.69 637.653 639.083 644.925 640.598 656.36C641.066 659.895 640.877 663.481 640.302 667.03C638.745 676.637 631.707 682.927 621.898 683.152C614.843 683.314 607.781 683.125 600.723 683.23C598.982 683.256 598.838 682.525 598.849 681.121C598.904 674.236 598.874 667.35 598.874 660.464C598.917 660.463 598.96 660.463 599.004 660.463ZM613.11 660.461C613.11 662.499 613.11 664.537 613.11 666.575C613.11 673.017 613.11 673.017 619.591 672.479C622.924 672.202 625.1 670.518 625.93 667.192C626.972 663.019 626.854 658.789 626.027 654.579C625.312 650.938 622.93 649.053 619.407 648.514C617.989 648.297 616.531 648.355 615.093 648.256C613.63 648.156 613.007 648.649 613.07 650.271C613.202 653.664 613.11 657.065 613.11 660.461Z" fill="#004F91"/>
<path d="M765.799 683.187C771.234 668.714 776.586 654.606 781.794 640.444C782.585 638.292 783.535 637.383 785.93 637.568C789.229 637.823 792.565 637.713 795.88 637.596C797.465 637.54 798.277 637.982 798.862 639.555C804.008 653.391 809.224 667.202 814.492 680.992C815.131 682.663 815.035 683.238 813.069 683.151C809.417 682.989 805.755 682.967 802.1 683.018C800.723 683.037 800.17 682.534 799.843 681.241C799.37 679.371 799.175 676.933 797.911 675.892C796.495 674.726 793.994 675.585 791.966 675.539C789.414 675.481 786.855 675.625 784.31 675.488C782.809 675.407 782.309 675.985 781.907 677.357C780.193 683.202 780.14 683.186 774.063 683.186C771.428 683.187 768.793 683.187 765.799 683.187ZM790.647 650.669C790.453 650.664 790.259 650.66 790.065 650.656C788.654 655.615 787.244 660.573 785.779 665.72C788.543 665.72 790.921 665.683 793.297 665.735C794.575 665.763 795.196 665.603 794.691 664.038C793.262 659.608 791.984 655.129 790.647 650.669Z" fill="#004F91"/>
<path d="M339.16 679.564C336.318 681.733 333.534 683.244 330.276 683.875C327.425 684.427 324.705 684.192 321.99 683.295C318.412 682.113 316.278 679.69 315.876 675.928C315.422 671.678 317.24 668.507 320.858 666.368C324.111 664.445 327.847 664.423 331.438 663.848C332.78 663.633 334.168 663.585 335.458 663.202C336.586 662.867 338.347 663.301 338.652 661.701C338.987 659.943 338.754 658.073 337.464 656.649C333.816 652.623 324.646 654.218 322.766 659.219C321.585 662.36 319.442 659.949 317.878 659.983C315.966 660.025 317.169 658.371 317.36 657.474C317.981 654.568 319.94 652.762 322.55 651.598C327.818 649.248 333.229 648.95 338.71 650.707C342.517 651.927 344.399 654.7 344.443 659.09C344.496 664.449 344.458 669.81 344.453 675.169C344.451 677.485 344.709 679.778 345.621 681.907C346.192 683.24 345.841 683.599 344.54 683.502C344.201 683.477 343.859 683.498 343.519 683.499C339.911 683.512 339.911 683.512 339.16 679.564ZM328.128 679.509C334.808 679.544 338.858 675.499 338.764 669.108C338.74 667.518 338.373 666.913 336.703 667.496C334.372 668.31 331.94 668.707 329.487 669.02C327.641 669.255 325.774 669.594 324.182 670.682C322.696 671.698 321.7 673.055 321.869 674.938C322.044 676.896 323.212 678.221 324.981 678.957C325.997 679.38 327.093 679.608 328.128 679.509Z" fill="#004F91"/>
<path d="M524.598 679.693C519.513 683.598 514.063 684.999 507.958 683.288C504.243 682.246 501.886 679.879 501.339 676.052C500.75 671.927 502.579 668.834 505.961 666.55C509.308 664.29 513.26 664.566 516.98 663.873C518.23 663.64 519.498 663.504 520.748 663.272C524.312 662.61 525.473 659.333 522.927 656.593C520.371 653.843 516.9 654.226 513.592 654.617C510.984 654.925 509.166 656.448 508.613 659.04C508.262 660.686 507.503 660.729 506.115 660.465C501.835 659.653 501.794 659.641 503.776 655.661C506.005 651.187 510.286 650.255 514.598 649.562C517.558 649.087 520.532 649.494 523.417 650.33C527.607 651.544 529.679 654.074 529.817 658.451C530.012 664.637 530.055 670.828 530.19 677.016C530.208 677.86 530.488 678.705 530.461 679.543C530.42 680.798 532.445 682.36 530.66 683.162C527.838 684.43 525.607 683.108 524.881 680.37C524.839 680.208 524.753 680.058 524.598 679.693ZM513.528 679.504C520.497 679.561 525.065 674.507 524.254 668.272C524.157 667.524 523.988 667.135 523.201 667.39C519.31 668.649 515.128 668.494 511.261 669.867C508.759 670.756 507.147 672.741 507.423 674.898C507.743 677.402 509.354 678.759 511.784 679.204C512.531 679.341 513.282 679.462 513.528 679.504Z" fill="#004F91"/>
<path d="M673.506 668.308C670.108 668.308 666.706 668.402 663.313 668.269C661.576 668.201 661.368 668.846 661.569 670.352C662.505 677.365 669.389 681.202 675.545 678.136C677.19 677.317 678.26 676 678.839 674.419C679.468 672.701 680.403 672.225 682.073 672.705C682.717 672.89 683.421 672.976 684.09 672.946C685.681 672.876 685.646 673.533 685.191 674.784C682.968 680.9 676.49 684.715 669.471 683.948C661.719 683.101 657.047 678.896 655.855 671.156C654.931 665.159 655.111 659.159 659.467 654.304C663.796 649.478 669.339 648.109 675.458 650.045C681.736 652.031 684.793 656.831 685.577 663.139C686.201 668.165 686.098 668.177 681.159 668.177C678.609 668.177 676.058 668.177 673.508 668.177C673.506 668.221 673.506 668.264 673.506 668.308ZM670.824 663.462C670.824 663.419 670.824 663.376 670.824 663.333C672.947 663.333 675.071 663.338 677.194 663.332C679.866 663.324 680.09 663.005 679.273 660.405C678.018 656.413 674.192 653.821 670.104 654.191C665.842 654.577 662.506 657.827 661.89 661.985C661.705 663.232 662.126 663.478 663.18 663.469C665.727 663.448 668.275 663.462 670.824 663.462Z" fill="#004F91"/>
<path d="M845.327 667.964C841.755 667.965 838.183 667.954 834.611 667.973C833.804 667.977 832.775 667.764 832.954 669.186C833.419 672.875 834.586 676.201 838.145 678.004C841.412 679.66 844.676 679.611 847.782 677.446C848.936 676.642 849.69 675.523 850.386 674.352C851.377 672.686 855.058 671.886 856.691 672.952C857.367 673.393 856.912 673.85 856.796 674.257C856.104 676.67 855.008 678.905 852.99 680.45C847.894 684.352 842.138 684.752 836.314 682.746C830.929 680.89 828.201 676.536 827.188 671.098C826.512 667.468 826.627 663.826 827.629 660.245C829.581 653.271 836.155 648.666 843.417 649.171C850.583 649.67 855.667 654.521 856.794 661.937C857.71 667.962 857.71 667.962 851.706 667.962C849.58 667.963 847.453 667.963 845.327 667.964ZM842.033 663.333C842.033 663.31 842.033 663.287 842.033 663.264C844.498 663.264 846.967 663.18 849.426 663.294C850.998 663.367 851.279 662.787 851.019 661.37C850.22 657.006 846.653 653.965 842.25 654.009C837.844 654.053 834.048 657.34 833.308 661.638C833.064 663.055 833.562 663.404 834.892 663.356C837.27 663.272 839.653 663.333 842.033 663.333Z" fill="#004F91"/>
<path d="M200.379 668.474C196.809 668.474 193.239 668.472 189.669 668.476C188.82 668.477 188.065 668.335 188.064 669.734C188.056 676.19 194.869 681.245 200.821 679.113C203.132 678.285 204.594 676.619 205.596 674.449C206.242 673.049 210.922 672.307 211.897 673.432C212.315 673.914 211.961 674.385 211.818 674.852C210.918 677.794 209.284 680.187 206.674 681.895C196.383 688.632 182.846 681.976 182.146 669.747C181.816 663.986 182.087 658.354 186.848 654.005C191.336 649.906 196.448 648.771 202.174 650.426C207.813 652.057 210.78 656.253 212.083 661.692C213.668 668.309 213.464 668.474 206.755 668.474C204.629 668.474 202.504 668.474 200.379 668.474ZM197.472 663.775C200.013 663.775 202.554 663.749 205.094 663.788C206.083 663.803 206.65 663.706 206.499 662.428C205.983 658.085 202.067 654.491 197.672 654.457C193.161 654.422 188.975 657.977 188.359 662.272C188.201 663.371 188.414 663.818 189.598 663.792C192.221 663.735 194.847 663.774 197.472 663.775Z" fill="#004F91"/>
<path d="M45.0867 572.459C45.0867 579.418 45.1507 585.76 45.0517 592.1C45.0167 594.323 42.8567 596.246 40.3347 596.263C29.5337 596.336 18.7327 596.345 7.93167 596.26C5.10767 596.238 3.46666 594.353 3.33066 591.538C3.29366 590.774 3.39969 589.987 3.25669 589.247C2.13769 583.46 6.04266 580.818 10.0767 578.24C11.1127 577.578 11.4157 578.004 11.3847 579.056C11.3277 581.009 11.3697 582.968 11.2287 584.914C11.1207 586.403 11.7057 586.767 13.1177 586.755C20.4317 586.694 27.7467 586.679 35.0597 586.765C36.6617 586.784 37.1407 586.334 36.9867 584.758C36.7457 582.307 36.5447 579.82 38.3777 577.743C40.1877 575.691 42.6397 574.551 45.0867 572.459Z" fill="#004F91"/>
<path d="M411.43 667.195C411.429 658.082 414.802 652.66 421.753 650.336C431.875 646.951 441.327 653.23 442.121 663.806C442.364 667.041 442.449 670.242 441.562 673.394C439.581 680.433 433.541 684.505 425.658 684.137C418.88 683.821 413.271 678.975 411.941 672.239C411.596 670.492 411.266 668.731 411.43 667.195ZM417.478 666.72C417.405 668.773 417.5 670.641 418.037 672.445C419.023 675.754 421.032 678.152 424.457 679.056C427.968 679.983 431.058 679.087 433.414 676.313C437.374 671.652 437.04 666.282 435.479 660.9C434.16 656.351 430.927 654.268 426.294 654.542C422.052 654.793 418.954 657.517 417.977 661.85C417.603 663.512 417.398 665.192 417.478 666.72Z" fill="#004F91"/>
<path d="M1022.69 666.319C1022.84 668.905 1022.66 671.265 1021.94 673.568C1019.71 680.64 1013.55 684.45 1005.62 683.644C998.295 682.899 992.874 677.488 992.132 669.937C991.591 664.429 991.809 658.997 995.617 654.456C999.77 649.502 1006.39 647.796 1012.77 649.935C1018.56 651.879 1022.29 656.946 1022.68 663.447C1022.74 664.465 1022.69 665.489 1022.69 666.319ZM1016.87 666.412C1016.78 665.028 1016.8 663.571 1016.58 662.153C1015.86 657.507 1012.47 654.328 1008.1 654.066C1003.25 653.775 999.783 656.187 998.49 660.979C997.501 664.648 997.485 668.383 998.641 672.031C1000.14 676.747 1003.73 679.342 1008.07 678.992C1012.46 678.638 1015.87 675.281 1016.57 670.538C1016.77 669.199 1016.77 667.831 1016.87 666.412Z" fill="#004F91"/>
<path d="M933.279 666.383C933.278 668.942 933.069 671.5 932.157 673.903C929.527 680.833 923.076 684.512 915.229 683.657C908.584 682.933 903.586 677.868 902.582 670.657C901.777 664.875 901.994 659.217 906.066 654.506C910.375 649.521 916.86 647.807 922.954 649.969C929.693 652.36 932.664 657.526 933.27 664.345C933.331 665.019 933.279 665.703 933.279 666.383ZM927.2 666.255C927.2 665.283 927.253 664.43 927.191 663.586C926.803 658.32 923.48 654.737 918.523 654.203C914.167 653.734 910.261 656.251 908.992 660.566C907.768 664.728 907.734 668.947 909.232 673.066C910.581 676.776 913.903 679.118 917.536 679.094C921.488 679.068 924.753 676.838 926.132 673.121C926.965 670.877 927.381 668.543 927.2 666.255Z" fill="#004F91"/>
<path d="M714.225 683.795C706.295 683.787 702.272 681.231 700.305 675.37C699.754 673.728 699.872 673.102 701.828 672.74C704.218 672.297 705.444 672.465 706.462 675.111C708.185 679.586 716.506 680.75 719.893 677.304C722.476 674.676 721.745 671.538 718.17 670.438C714.446 669.292 710.6 668.52 706.92 667.257C703.505 666.085 701.028 663.708 700.761 659.886C700.497 656.108 702.171 653.145 705.414 651.151C706.802 650.297 708.378 649.831 709.967 649.599C713.197 649.127 716.387 649.341 719.519 650.405C722.892 651.551 724.741 653.923 725.703 657.263C726.064 658.518 725.638 658.718 724.627 658.829C723.786 658.921 722.933 659.035 722.125 659.272C721.039 659.59 720.599 659.326 720.105 658.203C718.19 653.848 711.342 652.542 707.732 655.725C705.546 657.652 705.774 659.745 708.31 661.272C709.73 662.127 711.37 662.246 712.905 662.716C715.819 663.608 718.801 664.323 721.637 665.418C727.99 667.87 729.247 676.187 724.016 680.612C721.074 683.101 717.63 684.035 714.225 683.795Z" fill="#004F91"/>
<path d="M463.744 654.404C465.249 653.14 466.499 651.767 468.178 650.921C472.504 648.741 476.79 648.92 480.799 651.427C484.58 653.792 485.432 657.643 485.315 661.877C485.137 668.332 485.001 674.792 485.052 681.248C485.08 684.847 482.471 682.827 481.09 683.308C479.225 683.957 479.502 682.438 479.49 681.382C479.413 674.837 479.343 668.291 479.294 661.746C479.261 657.304 477.491 655.018 473.705 654.604C469.402 654.133 465.357 656.714 464.51 660.515C463.593 664.632 464.044 668.814 464.006 672.97C463.981 675.775 463.99 678.583 464.093 681.385C464.143 682.744 463.852 683.492 462.302 683.302C461.464 683.199 460.598 683.224 459.754 683.297C458.604 683.397 458.331 682.884 458.331 681.814C458.331 671.866 458.302 661.917 458.231 651.969C458.222 650.744 458.631 650.411 459.833 650.368C463.38 650.24 463.378 650.181 463.744 654.404Z" fill="#004F91"/>
<path d="M141.091 667.108C140.98 664.917 141.26 662.644 141.802 660.407C144.231 650.375 157.059 646.126 164.99 652.706C166.888 654.28 168.068 656.282 168.753 658.621C169.094 659.784 169.006 660.442 167.518 660.698C165.148 661.107 163.345 661.445 162.359 658.297C161.513 655.599 158.96 654.44 156.034 654.517C152.593 654.608 149.77 656.056 148.434 659.176C146.253 664.269 146.294 669.609 148.311 674.763C149.549 677.926 153.282 679.879 156.58 679.601C159.986 679.314 162.563 677.085 163.637 673.526C163.862 672.779 163.595 671.515 164.726 671.536C166.309 671.567 167.921 671.864 169.442 672.313C169.917 672.453 169.428 673.394 169.301 673.948C167.921 679.971 162.647 684.197 156.431 684.285C148.957 684.391 143.492 680.489 141.763 673.791C141.207 671.64 141.026 669.444 141.091 667.108Z" fill="#004F91"/>
<path d="M64.3697 543.588C64.3697 549.289 64.3567 554.377 64.3727 559.466C64.4077 570.931 64.4267 582.397 64.5347 593.862C64.5507 595.555 64.2037 596.221 62.3307 596.216C56.3927 596.201 56.3857 596.283 56.3947 590.341C56.4127 578.279 56.5136 566.216 56.4166 554.154C56.3866 550.477 57.4767 547.73 60.8527 546.018C61.8847 545.494 62.7807 544.7 64.3697 543.588Z" fill="#004F91"/>
<path d="M1120.79 542.989C1120.79 550.118 1120.78 556.648 1120.79 563.177C1120.82 573.131 1120.81 583.086 1120.93 593.039C1120.95 594.846 1120.63 595.54 1118.6 595.5C1113.12 595.391 1113.09 595.5 1113.03 590.013C1112.9 578.022 1112.89 566.029 1112.63 554.041C1112.55 550.314 1113.83 547.652 1116.95 545.737C1118.1 545.033 1119.15 544.171 1120.79 542.989Z" fill="#004F91"/>
<path d="M754.684 543.237C754.684 544.61 754.684 545.355 754.684 546.1C754.684 561.742 754.644 577.385 754.731 593.027C754.743 595.119 754.218 595.765 752.072 595.71C746.61 595.572 746.587 595.679 746.613 590.227C746.67 578.33 746.862 566.432 746.761 554.537C746.727 550.499 747.732 547.394 751.483 545.478C752.438 544.99 753.261 544.246 754.684 543.237Z" fill="#004F91"/>
<path d="M65.7857 669.557C65.7857 665.647 65.7037 661.735 65.8207 657.828C65.8777 655.932 65.4577 654.81 63.3257 655.22C60.7727 655.711 61.0767 654.04 60.9007 652.385C60.6687 650.199 62.0437 650.422 63.2657 650.596C65.5787 650.925 66.3727 649.993 66.0127 647.782C65.9177 647.201 65.9857 646.594 65.9877 645.998C66.0077 640.128 69.1767 637.095 75.0937 637.31C75.7697 637.335 76.4427 637.472 77.1157 637.567C80.0507 637.981 80.6867 639.276 79.5087 642.087C79.1817 642.867 78.7277 642.81 78.1367 642.79C77.2897 642.762 76.4377 642.685 75.5957 642.742C72.2977 642.965 69.8517 647.393 71.6667 650.124C72.5047 651.385 74.2167 650.752 75.4637 650.629C77.3337 650.445 77.9917 650.841 77.9227 652.864C77.8647 654.57 77.5577 655.424 75.7007 655.11C75.2047 655.026 74.6717 655.164 74.1737 655.085C72.1397 654.762 71.4347 655.411 71.4597 657.634C71.5477 665.536 71.2407 673.443 71.3737 681.343C71.4297 684.679 69.2307 683.211 67.8187 683.485C66.0667 683.825 65.4807 683.105 65.5447 681.288C65.6847 677.382 65.5877 673.467 65.5877 669.555C65.6527 669.557 65.7187 669.557 65.7857 669.557Z" fill="#004F91"/>
<path d="M93.0687 667.693C93.0687 664.205 92.9267 660.709 93.1257 657.232C93.2337 655.341 92.6327 654.98 90.9067 655.058C87.8697 655.195 87.9237 655.012 88.1997 651.992C88.3677 650.147 89.5497 650.469 90.5337 650.601C92.7607 650.898 93.1977 649.964 93.0977 647.901C92.6847 639.317 98.2567 635.156 106.406 637.744C107.628 638.132 107.679 638.925 107.308 639.653C106.772 640.704 107.846 642.589 105.741 642.818C105.41 642.854 105.066 642.75 104.726 642.725C99.7077 642.366 97.8677 644.497 98.7657 649.51C98.9027 650.274 99.1857 650.519 99.8817 650.518C100.732 650.516 101.583 650.558 102.433 650.564C104.722 650.58 105.909 652.448 104.968 654.532C104.513 655.541 103.634 655.055 102.964 655.074C98.8637 655.19 98.8397 655.165 98.7937 659.277C98.7097 666.675 98.5607 674.075 98.6367 681.472C98.6667 684.406 96.6977 683.313 95.3287 683.487C93.8407 683.676 92.7407 683.558 92.8087 681.457C92.9577 676.874 92.8547 672.282 92.8547 667.694C92.9267 667.693 92.9977 667.693 93.0687 667.693Z" fill="#004F91"/>
<path d="M87.9917 577.471C87.9917 585.746 88.1717 593.485 87.9397 601.212C87.7187 608.602 79.1067 610.927 73.1337 607.793C72.1067 607.254 71.1817 606.42 70.3887 605.558C69.2097 604.277 68.1437 602.53 68.7677 600.972C69.2567 599.753 71.1937 600.489 72.4697 600.476C78.5527 600.413 78.5357 600.448 78.5607 594.447C78.5727 591.558 78.5987 588.666 78.7397 585.782C78.8707 583.113 80.0486 581.148 82.7106 580.133C84.3496 579.507 85.8647 578.559 87.9917 577.471Z" fill="#004F91"/>
<path d="M368.909 639.28C369.436 642.422 369.375 645.399 369.242 648.354C369.158 650.23 369.797 650.603 371.563 650.518C372.683 650.464 374.567 649.26 374.918 651.775C375.351 654.884 375.266 655.149 372.056 654.982C370.003 654.875 369.282 655.352 369.359 657.57C369.553 663.17 369.486 668.781 369.461 674.387C369.446 677.619 369.922 678.468 373.14 678.405C376.151 678.346 375.136 680.535 375.462 681.882C375.934 683.83 374.249 683.489 373.184 683.632C371.665 683.836 370.132 683.839 368.623 683.497C365.556 682.802 363.91 681.294 363.798 678.127C363.554 671.268 363.552 664.398 363.596 657.533C363.608 655.629 363.27 654.816 361.122 655.016C358.586 655.253 360.137 653.068 359.746 652.05C359.317 650.935 360.003 650.251 361.225 650.509C363.822 651.058 363.973 649.523 363.768 647.635C363.759 647.551 363.769 647.465 363.766 647.38C363.534 641.817 363.534 641.817 368.909 639.28Z" fill="#004F91"/>
<path d="M1076.36 638.723C1076.36 641.424 1076.32 644.021 1076.37 646.616C1076.42 649.932 1076.45 650.023 1079.81 649.947C1081.43 649.91 1081.98 650.332 1082.04 652.035C1082.11 654.015 1081.56 654.916 1079.53 654.514C1076.83 653.981 1076.32 655.223 1076.39 657.699C1076.57 663.305 1076.46 668.921 1076.38 674.532C1076.34 677.069 1077.6 678.2 1079.96 677.971C1083.06 677.672 1082.22 680.025 1082.47 681.538C1082.82 683.605 1081.08 682.997 1080.07 683.133C1079.07 683.268 1078.03 683.206 1077.01 683.162C1072.96 682.986 1070.84 681.054 1070.75 677.004C1070.6 670.377 1070.61 663.744 1070.67 657.114C1070.69 655.307 1070.51 654.18 1068.27 654.488C1065.76 654.832 1066.87 652.816 1066.66 651.719C1066.39 650.319 1066.98 649.593 1068.44 649.906C1070.38 650.319 1070.87 649.397 1070.64 647.698C1070.6 647.364 1070.64 647.018 1070.64 646.678C1070.64 641.272 1070.83 640.993 1076.36 638.723Z" fill="#004F91"/>
<path d="M553.864 660.62C553.864 667.341 553.753 674.064 553.926 680.781C553.984 683.022 553.251 683.655 551.229 683.304C551.064 683.275 550.885 683.276 550.72 683.304C548.58 683.662 547.811 682.991 547.863 680.617C548.038 672.623 547.93 664.623 547.93 656.625C547.93 651.01 548.004 645.393 547.902 639.779C547.84 636.376 550.361 638.201 551.714 637.784C553.258 637.308 553.715 638.139 553.698 639.696C553.621 646.67 553.665 653.644 553.665 660.619C553.731 660.62 553.797 660.62 553.864 660.62Z" fill="#004F91"/>
<path d="M1044.11 654.289C1045.09 653.055 1045.7 652.269 1046.33 651.498C1048.73 648.564 1053.66 648.224 1056.42 650.743C1057.49 651.722 1056.43 652.457 1056.21 653.229C1055.64 655.163 1055.04 656.693 1052.28 655.384C1049.93 654.265 1047.16 655.835 1046.02 658.276C1045.11 660.215 1044.59 662.241 1044.61 664.416C1044.65 669.854 1044.5 675.296 1044.67 680.728C1044.76 683.703 1042.74 682.78 1041.26 682.988C1039.53 683.229 1038.67 682.827 1038.71 680.727C1038.89 671.303 1038.98 661.874 1038.91 652.449C1038.89 650.269 1039.69 649.995 1041.54 649.999C1043.38 650.003 1044.53 650.258 1044.12 652.449C1044.04 652.856 1044.11 653.292 1044.11 654.289Z" fill="#004F91"/>
<path d="M878.792 654.126C882.826 649.178 885.694 648.288 889.916 650.27C891.181 650.864 891.663 651.358 891.053 652.936C890.156 655.259 889.379 656.563 886.463 655.451C883.969 654.5 881.152 656.473 880.204 659.308C879.557 661.243 879.305 663.272 879.306 665.322C879.308 670.59 879.186 675.862 879.356 681.125C879.444 683.828 877.692 683.042 876.337 683.106C874.924 683.173 873.569 683.489 873.598 681.085C873.714 671.571 873.603 662.054 873.594 652.538C873.593 651.288 873.048 649.631 875.42 649.973C877.015 650.203 879.286 649.382 878.712 652.458C878.639 652.843 878.744 653.263 878.792 654.126Z" fill="#004F91"/>
<path d="M124.769 667.11C124.769 671.869 124.614 676.636 124.833 681.385C124.946 683.838 123.656 683.716 122.037 683.636C120.598 683.565 119.109 684.138 119.147 681.519C119.286 671.92 119.195 662.316 119.077 652.715C119.055 650.954 119.49 650.171 121.301 650.496C122.8 650.766 124.991 649.611 124.83 652.834C124.594 657.583 124.769 662.351 124.769 667.11Z" fill="#004F91"/>
<path d="M389.812 667.111C389.812 662.272 389.877 657.432 389.776 652.595C389.742 650.969 390.144 650.41 391.86 650.452C395.461 650.539 395.457 650.436 395.465 654.112C395.484 663.112 395.42 672.114 395.577 681.111C395.639 684.66 393.079 683.094 391.559 683.472C389.212 684.056 389.947 682.173 389.934 681.12C389.876 676.45 389.909 671.78 389.909 667.11C389.877 667.111 389.845 667.111 389.812 667.111Z" fill="#004F91"/>
<path d="M850.402 637.716C848.218 640.41 846.361 642.718 844.485 645.009C842.93 646.908 840.923 645.694 838.778 646.003C840.152 643.293 841.351 640.9 842.581 638.523C842.845 638.013 843.101 637.418 843.847 637.44C845.92 637.502 848.015 637.185 850.402 637.716Z" fill="#004F91"/>
<path d="M891.326 555.92C893.952 555.887 895.128 557.011 895.137 559.564C895.146 562.133 893.67 563.936 891.528 563.975C889.197 564.017 887.189 562.182 887.091 559.922C886.986 557.5 888.622 555.954 891.326 555.92Z" fill="#004F91"/>
<path d="M22.4087 562.94C22.3467 565.064 20.3227 567.024 18.2747 566.944C15.9297 566.852 14.1327 564.936 14.2127 562.613C14.2897 560.351 15.9857 558.893 18.4827 558.941C20.9287 558.987 22.4787 560.566 22.4087 562.94Z" fill="#004F91"/>
<path d="M538.633 561.122C538.678 563.47 537.099 565.212 534.85 565.296C532.454 565.386 530.805 563.712 530.78 561.165C530.755 558.546 532.014 557.178 534.524 557.097C537.073 557.015 538.584 558.495 538.633 561.122Z" fill="#004F91"/>
<path d="M908.418 559.857C908.415 562.56 907.223 563.807 904.63 563.819C901.851 563.832 900.666 562.634 900.655 559.798C900.644 557.109 901.864 555.79 904.387 555.763C906.977 555.736 908.421 557.203 908.418 559.857Z" fill="#004F91"/>
<path d="M819.11 611.177C816.778 611.202 815.132 609.668 815.155 607.492C815.179 605.186 816.877 603.444 819.124 603.418C821.434 603.392 823.246 605.09 823.287 607.319C823.329 609.519 821.562 611.151 819.11 611.177Z" fill="#004F91"/>
<path d="M27.6957 562.744C27.6897 560.261 29.0117 558.817 31.3167 558.788C33.8627 558.756 35.6287 560.414 35.5917 562.802C35.5557 565.146 33.8247 566.886 31.5927 566.823C29.2067 566.757 27.7017 565.182 27.6957 562.744Z" fill="#004F91"/>
<path d="M450.928 614.747C453.672 614.765 454.714 615.671 454.71 618.035C454.705 620.603 453.421 621.756 450.625 621.701C448.084 621.651 446.699 620.345 446.695 617.994C446.692 615.789 448.075 614.729 450.928 614.747Z" fill="#004F91"/>
<path d="M436.613 614.662C439.185 614.648 440.24 615.641 440.277 618.111C440.315 620.609 439.137 621.713 436.444 621.702C433.879 621.692 432.366 620.4 432.336 618.194C432.304 615.876 433.756 614.678 436.613 614.662Z" fill="#004F91"/>
<path d="M124.676 641.492C125.265 643.938 124.495 645.109 121.759 644.725C120.227 644.51 118.648 645.128 118.826 642.406C119.106 638.137 118.918 638.358 121.939 638.06C124.938 637.764 125.127 639.256 124.676 641.492Z" fill="#004F91"/>
<path d="M395.536 641.29C395.127 642.39 396.693 644.978 393.5 644.426C392.136 644.19 389.35 645.826 389.9 642.475C390.159 640.901 388.012 638.066 391.631 637.83C395.397 637.586 395.466 637.75 395.536 641.29Z" fill="#004F91"/>
<path d="M707.597 171.927C703.835 171.607 701.092 169.993 699.938 166.612C698.297 161.806 696.863 156.918 695.594 152C694.785 148.866 697.173 144.673 700.403 143.561C704.966 141.991 709.592 140.547 714.278 139.404C718.928 138.269 722.902 140.757 724.341 145.354C725.581 149.317 726.772 153.297 727.867 157.302C729.202 162.184 726.907 166.35 722.055 167.85C717.847 169.151 713.597 170.317 709.362 171.53C708.715 171.716 708.048 171.827 707.597 171.927Z" fill="#A1A5A8"/>
<path d="M770.937 125.489C771.617 123.215 772.913 122.136 775.247 120.884C779.107 118.812 783.282 118.372 787.144 116.769C789.35 115.853 791.616 117.34 793.846 116.51C794.097 116.417 795.57 116.569 795.427 118.049C795.37 118.644 796.654 119.992 797.118 119.903C798.781 119.583 798.692 121.005 798.889 121.628C800.181 125.728 801.409 129.858 802.394 134.04C802.703 135.352 802.2 136.855 802.068 138.271L802.103 138.24C801.927 138.513 801.607 138.782 801.597 139.061C801.459 143.199 798.512 144.381 795.207 145.251C791.768 146.156 788.381 147.292 784.906 148.013C781.971 148.622 779.555 148.772 776.859 145.794C772.619 141.112 772.688 135.382 770.936 130.095L770.912 130.117C771.619 128.567 771.735 127.017 770.913 125.467L770.937 125.489Z" fill="#A1A5A8"/>
<path d="M741.821 160.234C740.47 160.336 740.371 158.944 739.658 158.431C734.574 154.776 735.202 148.706 733.361 143.731C732.723 142.007 733.519 139.752 733.66 137.74L733.623 137.773C734.479 136.293 735.956 135.216 736.432 133.497C736.628 132.787 737.252 132.637 737.766 132.491C742.151 131.243 746.456 129.673 751.009 129.076L750.985 129.045C751.635 129.9 752.557 129.462 753.35 129.494C756.898 129.64 760.416 132.261 761.405 135.574C762.059 137.763 762.645 139.975 763.372 142.139C764.293 144.878 765.122 147.602 764.276 150.521L764.306 150.492C763.746 151.02 763.487 151.548 764.306 152.076L764.278 152.051C764.427 153.31 763.143 153.295 762.669 153.899C758 159.834 750.701 158.921 744.561 160.955C743.84 161.194 742.56 161.028 741.794 160.2C742.189 160.182 742.584 160.165 743.144 160.14C742.498 159.596 742.109 159.637 741.821 160.234Z" fill="#A1A5A8"/>
<path d="M751.008 129.075C752.31 128.101 753.727 128.803 755.103 129.045C753.73 129.045 752.357 129.045 750.984 129.045L751.008 129.075Z" fill="#A1A5A8"/>
<path d="M770.937 130.096C770.142 128.561 770.153 127.024 770.937 125.489L770.914 125.469C770.914 127.019 770.913 128.569 770.913 130.119L770.937 130.096Z" fill="#A1A5A8"/>
<path d="M633.21 248.354C632.814 247.848 632.379 248.083 631.725 248.361C632.447 248.597 632.842 248.635 633.21 248.354Z" fill="#A1A5A8"/>
<path d="M764.276 150.521C764.989 151.03 764.933 151.54 764.278 152.051L764.305 152.076C764.305 151.548 764.305 151.02 764.305 150.492L764.276 150.521Z" fill="#A1A5A8"/>
<path d="M802.068 138.271C802.721 138.552 802.492 138.989 802.162 139.429C802.143 139.033 802.124 138.636 802.105 138.24L802.068 138.271Z" fill="#A1A5A8"/>
<path d="M733.66 137.74C733.522 137.602 733.383 137.463 733.245 137.325C733.329 137.254 733.412 137.183 733.496 137.111C733.539 137.332 733.581 137.553 733.624 137.774L733.66 137.74Z" fill="#A1A5A8"/>
<path d="M770.914 130.118C770.914 128.568 770.914 127.018 770.915 125.468C771.737 127.018 771.621 128.568 770.914 130.118Z" fill="#004F91"/>
<path d="M741.821 160.234C742.109 159.637 742.499 159.596 743.144 160.14C742.584 160.165 742.188 160.183 741.793 160.2L741.821 160.234Z" fill="#004F91"/>
<path d="M764.305 152.076C764.305 151.548 764.305 151.02 764.305 150.492C763.745 151.02 763.486 151.548 764.305 152.076Z" fill="#004F91"/>
</svg>