<svg xmlns="http://www.w3.org/2000/svg" viewBox="0 0 371.13 205.44"><defs><style>.cls-2{fill:#b3b3b4}.cls-3{fill:#bd1f1d}.cls-4{fill:#c12121}</style><radialGradient id="radial-gradient" cx="188.61" cy="97.55" r="224.55" gradientTransform="matrix(1.05, 0.05, -0.06, 1.25, -3.88, -29.03)" gradientUnits="userSpaceOnUse"><stop offset="0" stop-color="#fff"/><stop offset="0.27" stop-color="#fdfdfd"/><stop offset="0.42" stop-color="#f5f5f5"/><stop offset="0.53" stop-color="#e7e7e7"/><stop offset="0.63" stop-color="#d4d4d4"/><stop offset="0.72" stop-color="#bbb"/><stop offset="0.81" stop-color="#9c9c9c"/><stop offset="0.88" stop-color="#777"/><stop offset="0.96" stop-color="#4e4e4e"/><stop offset="1" stop-color="#303030"/></radialGradient><linearGradient id="linear-gradient" x1="6.68" y1="102.72" x2="371.13" y2="102.72" gradientUnits="userSpaceOnUse"><stop offset="0" stop-color="#cbc9ca"/><stop offset="1" stop-color="#cbc9ca"/></linearGradient></defs><g id="Layer_2" data-name="Layer 2"><g id="Layer_1-2" data-name="Layer 1"><rect x="7.18" y="0.5" width="363.46" height="204.44" rx="23.57" style="fill:url(#radial-gradient);stroke:url(#linear-gradient);stroke-miterlimit:10"/><path class="cls-2" d="M100.08,122.72A41.83,41.83,0,0,1,82,118.94a30.42,30.42,0,0,1-10.94-8.52c-.52-.67-1-1.33-1.46-2A27.32,27.32,0,0,1,65.16,93a27.31,27.31,0,0,1,4.45-15.42A29.47,29.47,0,0,1,82,67a41.69,41.69,0,0,1,18.07-3.78c10.34,0,19.15,3.29,26.29,9.82a1.78,1.78,0,0,0,2.31.12l13.39-10.5a1.83,1.83,0,0,0,.16-2.75,51.71,51.71,0,0,0-17.77-10.8,73.1,73.1,0,0,0-25.65-4.26A72,72,0,0,0,68.52,51a51.39,51.39,0,0,0-21.2,17.14A42,42,0,0,0,39.6,93a42,42,0,0,0,7.72,24.8c.47.71,1,1.37,1.51,2a52,52,0,0,0,19.69,15.09,71.47,71.47,0,0,0,30.14,6.2,74,74,0,0,0,25.75-4.26,51.23,51.23,0,0,0,18.38-11.41,1.17,1.17,0,0,0-.11-1.75L128.25,112.3a1.11,1.11,0,0,0-1.47.08C119.56,119.26,110.62,122.72,100.08,122.72Z"/><path class="cls-2" d="M283.56,99.67l-.14-53.24H262.64L226.49,98.49l-4,5.77-4.12-5.82-36.77-52H160.71v92.09a.94.94,0,0,0,.95.95h21.8a1,1,0,0,0,1-.95V84.86L194,98.35l22.34,31.28h11.41l21.48-30.81,10.6-15.19,0,15.38.09,39.31a1.15,1.15,0,0,0,1.16,1.15h21.39a1.16,1.16,0,0,0,1.16-1.16Z"/><path class="cls-2" d="M309.59,46.43v91.65a1.39,1.39,0,0,0,1.39,1.39h22.49a1.39,1.39,0,0,0,1.39-1.39V48.23a1.8,1.8,0,0,0-1.8-1.8Z"/><path class="cls-2" d="M124.46,49.08a52.09,52.09,0,0,1,17.4,10.45,2.26,2.26,0,0,1-.18,3.41L129,72.91a2.23,2.23,0,0,1-2.87-.14c-7.09-6.38-15.81-9.58-26-9.58A41.69,41.69,0,0,0,82,67a29.47,29.47,0,0,0-12.4,10.56A27.31,27.31,0,0,0,65.16,93a27.32,27.32,0,0,0,4.45,15.43c.47.71.94,1.37,1.46,2l-22.24,9.37c-.52-.67-1-1.33-1.51-2A42,42,0,0,1,39.6,93a42,42,0,0,1,7.72-24.79A51.39,51.39,0,0,1,68.52,51a72,72,0,0,1,30.29-6.2A73.1,73.1,0,0,1,124.46,49.08Z"/><path class="cls-2" d="M218.35,98.44c-8.19,0-16.38-.09-24.33-.09l-9.6-13.49V98.35c-8.24,0-16.19.05-23.71.09v-52h20.87Z"/><path class="cls-2" d="M283.56,99.67C275.9,99.39,268,99.2,259.9,99l0-15.38-10.6,15.19c-7.57-.14-15.19-.23-22.76-.33l36.15-52.06h19.09a1.69,1.69,0,0,1,1.69,1.69Z"/><path class="cls-2" d="M334.86,48.66v54.09c-7.38-.8-15.9-1.42-25.27-1.94V46.43h23.05A2.22,2.22,0,0,1,334.86,48.66Z"/><path class="cls-3" d="M97.36,120a41.7,41.7,0,0,1-18.08-3.79,30.29,30.29,0,0,1-10.93-8.52c-.52-.66-1-1.32-1.47-2a29,29,0,0,1,0-30.86,29.58,29.58,0,0,1,12.4-10.55,41.7,41.7,0,0,1,18.08-3.79c10.19,0,18.89,3.2,26,9.55a2.29,2.29,0,0,0,3,.14l13.07-10.25a1.82,1.82,0,0,0,.15-2.74,51.75,51.75,0,0,0-17.78-10.8,73.1,73.1,0,0,0-25.65-4.26,71.84,71.84,0,0,0-30.29,6.2,51.37,51.37,0,0,0-21.2,17.13,42,42,0,0,0-7.71,24.8A42,42,0,0,0,44.59,115c.47.71,1,1.37,1.51,2a52,52,0,0,0,19.69,15.1,71.51,71.51,0,0,0,30.15,6.2,74,74,0,0,0,25.74-4.26A51.36,51.36,0,0,0,140,122.7a1.25,1.25,0,0,0-.12-1.85l-14.32-11.28a1.19,1.19,0,0,0-1.56.09C116.8,116.51,107.88,120,97.36,120Z"/><path class="cls-3" d="M280.84,96.91l-.14-52.23a1,1,0,0,0-1-1H260.45a1,1,0,0,0-.83.44L223.76,95.73l-4,5.77-4.12-5.82L179.15,44.1a1,1,0,0,0-.82-.43H159a1,1,0,0,0-1,1v91a1,1,0,0,0,1,1h21.68a1,1,0,0,0,1-1V85.27a1,1,0,0,1,1.84-.59l7.77,10.91,22,30.85a1,1,0,0,0,.83.43h10.35a1,1,0,0,0,.83-.44l21.19-30.37,10.6-15.19,0,15.38.1,39.45a1,1,0,0,0,1,1H280a1,1,0,0,0,1-1Z"/><path class="cls-3" d="M306.86,46v88.86a1.86,1.86,0,0,0,1.86,1.86h21.56a1.86,1.86,0,0,0,1.86-1.86V45.53a1.86,1.86,0,0,0-1.86-1.86h-21.1A2.32,2.32,0,0,0,306.86,46Z"/><path class="cls-4" d="M121.73,46.32a51.66,51.66,0,0,1,18,11,1.53,1.53,0,0,1-.13,2.29L125.75,70.53a1.47,1.47,0,0,1-1.91-.1c-7.18-6.66-16-10-26.48-10a41.7,41.7,0,0,0-18.08,3.79,29.58,29.58,0,0,0-12.4,10.55,29,29,0,0,0,0,30.86c.47.71,1,1.37,1.47,2L46.1,117c-.52-.66-1-1.32-1.51-2a42,42,0,0,1-7.71-24.8,42,42,0,0,1,7.71-24.8,51.37,51.37,0,0,1,21.2-17.13,71.84,71.84,0,0,1,30.29-6.2A73.1,73.1,0,0,1,121.73,46.32Z"/><path class="cls-4" d="M215.62,95.68c-8.18-.05-16.37-.09-24.32-.09L181.69,82.1V95.59c-8.23,0-16.18,0-23.71.09V45.78a2.12,2.12,0,0,1,2.11-2.11h18.76Z"/><path class="cls-4" d="M280.84,96.91c-7.67-.28-15.57-.47-23.67-.66l0-15.38-10.6,15.19c-7.58-.14-15.2-.24-22.77-.33l36.16-52.06h19.41A1.37,1.37,0,0,1,280.7,45Z"/><path class="cls-4" d="M332.14,45.91V100c-7.39-.81-15.9-1.42-25.28-1.94V45.91a2.24,2.24,0,0,1,2.25-2.24h20.78A2.24,2.24,0,0,1,332.14,45.91Z"/><line x1="41.7" y1="165.42" x2="334.06" y2="165.42" style="fill:none;stroke:#c90c0f;stroke-width:4px;stroke-miterlimit:10"/></g></g></svg>