<svg height="164" width="800" fill="none" viewBox="0 0 800 164" xmlns="http://www.w3.org/2000/svg">
  	<path d="M94.0984 98.3L74.3984 159.5H62.6984L46.6984 116L32.4984 159.5H20.3984L0.398438 98.3H14.0984L26.6984 141.4L41.0984 98.3H53.6984L68.0984 141.1L81.0984 98.3" fill="#0B70B7"/>
  	<path d="M161.998 133.9H114.098C115.998 143.7 123.198 150.6 132.198 150.6C140.598 150.6 146.198 147.6 150.798 141.1L160.098 148.3C153.098 158.1 144.498 162 132.198 162C114.098 162 100.998 148.5 100.998 129.7C100.998 110.9 114.298 97.4 132.598 97.4C141.198 97.4 148.598 100.4 153.798 106C159.198 111.6 161.898 119.7 161.898 129.5M148.998 123.2C148.098 114.1 141.998 108.8 132.298 108.8C122.498 108.8 116.298 113.9 114.398 123.2H148.998Z" fill="#0B70B7"/>
  	<path d="M424.798 102.3V114C416.698 124.1 404.098 144.8 395.098 159.8L382.898 163.9C367.698 135.6 348.598 104.7 324.398 104.7C318.598 104.7 313.998 107 313.998 112.3C313.998 122.7 347.098 124 347.098 145.2C347.098 154.9 336.498 163.8 322.498 163.8C303.798 163.8 299.898 153 283.098 153H247.598L254.698 142.4H283.198C279.298 139.2 276.298 135.5 271.498 128.6C266.698 121.5 263.398 116.6 260.898 112.5C237.398 155.8 228.398 163.8 211.398 163.8C193.698 163.8 179.598 149.5 179.598 127.9C179.598 107.9 193.598 93.6 213.198 93.6C219.598 93.6 229.498 96.6 236.898 105.1L228.398 113.6C224.498 108.1 218.698 104.6 212.098 104.6C201.498 104.6 193.198 114.7 193.198 128.3C193.198 141.4 200.998 152.7 213.198 152.7C228.398 152.7 238.998 127.2 255.598 100L267.798 95.9C282.998 124.2 299.598 153 322.098 153C328.798 153 333.398 150 333.398 144.9C333.398 134.3 300.298 131.8 300.298 112.7C300.298 101 311.598 93.6 324.498 93.6C355.798 93.6 372.598 119.4 379.098 128.8C383.898 135.9 387.198 142.6 389.898 147.4C398.398 132.4 405.998 121.2 411.298 113.1H375.398L383.898 102M200.798 69.2L194.598 64.8C211.398 33.3 247.998 0.100006 302.598 0.100006C356.898 0.100006 393.498 33.2 410.298 64.8L404.098 69.2C385.498 38.6 348.598 10.7 302.598 10.7C256.298 10.7 219.398 38.5 200.798 69.2Z" fill="#0B70B7"/>
  	<path d="M469.698 162.1C463.398 162.1 457.098 160.2 451.998 156.8V161H439.898V30.7H451.998V103.5C457.798 98.6 464.298 96.3 471.998 96.3C515.498 96.3 515.198 162.1 469.698 162.1ZM471.098 107.4C465.298 107.4 458.498 109.5 451.998 116V144.4C456.898 148.8 463.198 150.9 469.398 150.9C497.298 150.9 497.298 107.4 471.098 107.4Z" fill="#231F20"/>
  	<path d="M529.398 30.2H517.298V162.1H529.398V30.2Z" fill="#231F20"/>
  	<path d="M597.998 120.2V162.1H586.598V155.4C579.398 160.7 572.698 162.1 566.098 162.1C550.498 162.1 544.698 151.4 544.698 144.4C544.698 130.7 557.298 123 579.098 123H586.298C585.598 114.4 581.198 109.7 572.798 109.7C566.498 109.7 558.598 113.9 556.098 119.5L546.998 111.1C555.398 100.6 566.998 98.5 573.998 98.5C586.898 98.6 597.998 108.6 597.998 120.2ZM586.598 142.1V133.5C565.898 133.3 558.498 136.5 558.498 143.7C558.498 148.8 564.098 150.9 568.698 150.9C575.498 150.9 582.698 148.1 586.598 142.1Z" fill="#231F20"/>
  	<path d="M668.298 123.7V160.9H656.698V124.8C656.698 115 652.498 109.7 644.398 109.7C639.298 109.7 634.198 110.6 626.698 116.2V160.9H614.998V99.7H626.598V104.8C633.098 100.6 639.198 98.5 644.998 98.5C659.898 98.6 668.298 107.7 668.298 123.7Z" fill="#231F20"/>
  	<path d="M734.298 151.6C727.798 160.2 715.698 162.1 712.398 162.1C693.998 162.1 680.998 148.6 680.998 129.8C680.998 111.9 693.998 98.6 712.398 98.6C718.398 98.6 728.698 101.4 734.498 109.3L726.098 117.7C722.398 112.6 717.498 109.8 712.398 109.8C701.498 109.8 694.698 118.6 694.698 129.8C694.698 142.4 700.998 151 712.398 151C717.298 151 722.898 147.7 725.398 142.9" fill="#231F20"/>
  	<path d="M799.198 120.2V162.1H787.798V155.4C780.598 160.7 773.798 162.1 767.298 162.1C751.698 162.1 745.898 151.4 745.898 144.4C745.898 130.7 758.498 123 780.298 123H787.498C786.798 114.4 782.398 109.7 773.998 109.7C767.698 109.7 759.798 113.9 757.198 119.5L748.098 111.1C756.498 100.6 768.098 98.5 775.098 98.5C788.098 98.6 799.198 108.6 799.198 120.2ZM787.798 142.1V133.5C767.098 133.3 759.698 136.5 759.698 143.7C759.698 148.8 765.298 150.9 769.898 150.9C776.698 150.9 783.898 148.1 787.798 142.1Z" fill="#231F20"/>
</svg>