<?xml version="1.0" encoding="UTF-8"?>
<svg id="Layer_2" data-name="Layer 2" xmlns="http://www.w3.org/2000/svg" viewBox="0 0 231.08 232.96">
  <g id="Layer_2-2" data-name="Layer 2">
    <path d="M152.36,136.47l-2.44.68c-20.3,27.08-40.81,53.8-61.39,80.68-.52.67-.9,1.29-.96,2.16,11.1,16.37,32.1,17.35,44.83,2.36l34.36-59.75-.38-1.52c-4.88-8.09-9.33-16.43-14.02-24.61Z"/>
    <path d="M152.36,136.47c-2.2-3.81-4.43-7.62-6.48-11.52-.23-.36-.53-.5-.95-.5-.57,0-8.3,4.64-10.01,5.38-7.85,3.41-16.71,5.48-25.28,5.68l14.75,28.14c-.91,4.42-5.78,7.35-9.95,8.33-2.74.64-2.72.45-5.28,0-4.99-.87-7.35-2.44-10.08-6.72-7.01-11-13.56-24.05-20.15-35.52l-1.92,1.2-22.56,30c6.55,11.68,13.08,23.38,19.67,35.04,4.49,7.94,8.31,16.44,13.44,24,.06-.87.45-1.49.96-2.16,20.58-26.88,41.09-53.6,61.39-80.68l2.44-.68s0,0,0,.01h0s0,0,0,0Z"/>
    <path d="M78.92,129.74c-6.13-10.67-12.14-21.53-18.23-32.16h0c-5.06-8.83-10.3-17.58-15.36-26.4h-.01c-.14-.02-.28-.03-.39-.04.12,0,.26.01.4.04-4.79-8.35-9.38-16.73-14.4-24.96h-.01c-.28-.46-.38-1.47-.87-2.24-1.84-2.92-2.39-3.36-5.84-4.24-15.23-3.89-28.42,11.21-22.97,25.86,1.31,3.51,4.09,7.76,6.18,10.86.18,1.64,4.55,8.82,5.68,10.88,2.6,4.76,5.62,9.34,8.23,14.07,0,0,0,0,0,0,5.06,9.13,10.31,18.3,15.34,27.33,0,.01,0,.02,0,.03,5.94,10.65,11.77,21.48,17.76,32.16l22.56-30,1.92-1.2Z"/>
    <path d="M104.11,110.53c9.59-.62,20.44-4.24,29.03-8.39-9.19-15.87-18.41-31.75-27.34-47.76l-1.46,1.66-15.34,40.58c2.35,4.31,4.43,8.82,6.77,13.15.94,1.21,6.52.88,8.34.76Z"/>
    <path d="M219.05,35.66h0s0,0,0,0h0c-19.51-6.64-24.49,16.46-33.83,27.83-.65-.48-.84-1.25-1.2-1.91-.88.39-1.32,1.06-1.68,1.92.36-.86.79-1.53,1.68-1.92-6.4-11.76-13.02-24.57-20.63-35.52-1.28-.07-1.2.71-1.58,1.54-.32.71-.65,1.45-.98,2.2.33-.75.66-1.48.98-2.2.37-.83.3-1.61,1.58-1.54-6.35-9.14-12.09-14.08-22.07-19.2h-.01c-7.44-3.82-11.81-5.12-20.15-6.24h.01c-9.58-1.33-18.61-.5-27.84,2.4h0c-15.87,4.77-29.25,17.21-36.75,31.67-.19.68-.22,1.16.17,1.78,7.24,13.74,15.05,27.18,22.18,40.93v.02c3.39,6.35,6.62,12.85,10.07,19.2l15.34-40.58,1.46-1.66c-1.67-3-3.16-6.12-4.8-9.12-.66-1.21-3.64-5.02-3.74-6.07,5.89-13.01,23.78-14.37,32.54-3.53,2.65,3.45,5,9.96,7.2,13.92,3.3,5.93,6.81,11.8,10.08,17.76-.09-.94.17-1.78.46-2.66-.29.88-.55,1.72-.46,2.66,6.74,12.29,13.43,24.65,20.15,36.96-.05-1.57.54-3.02,1.07-4.44-.53,1.43-1.12,2.88-1.07,4.44,4.81,8.8,9.37,17.72,14.4,26.4.5.88.69,2.41,1.91,2.88,9.38-15.75,18.91-31.44,28.6-47,4.48-7.19,18.13-25.29,18.86-32.49.84-8.17-4.25-15.81-11.94-18.43ZM215.94,40.95c.72-1.75,1.46-4.21,3.03-5.23-1.57,1.02-2.31,3.49-3.03,5.23Z"/>
  </g>
</svg>